<svg xmlns="http://www.w3.org/2000/svg" viewBox="0 0 32 32" width="32" height="32">
  <rect width="32" height="32" rx="6" fill="#0d1f3c"/>
  <path d="M 17.670 6.648 L 19.109 3.377 L 22.727 4.876 L 21.432 8.206 L 23.794 10.568 L 27.124 9.273 L 28.623 12.891 L 25.352 14.330 L 25.352 17.670 L 28.623 19.109 L 27.124 22.727 L 23.794 21.432 L 21.432 23.794 L 22.727 27.124 L 19.109 28.623 L 17.670 25.352 L 14.330 25.352 L 12.891 28.623 L 9.273 27.124 L 10.568 23.794 L 8.206 21.432 L 4.876 22.727 L 3.377 19.109 L 6.648 17.670 L 6.648 14.330 L 3.377 12.891 L 4.876 9.273 L 8.206 10.568 L 10.568 8.206 L 9.273 4.876 L 12.891 3.377 L 14.330 6.648 Z M 20.500 16.000 L 20.414 15.122 L 20.157 14.278 L 19.742 13.500 L 19.182 12.818 L 18.500 12.258 L 17.722 11.843 L 16.878 11.586 L 16.000 11.500 L 15.122 11.586 L 14.278 11.843 L 13.500 12.258 L 12.818 12.818 L 12.258 13.500 L 11.843 14.278 L 11.586 15.122 L 11.500 16.000 L 11.586 16.878 L 11.843 17.722 L 12.258 18.500 L 12.818 19.182 L 13.500 19.742 L 14.278 20.157 L 15.122 20.414 L 16.000 20.500 L 16.878 20.414 L 17.722 20.157 L 18.500 19.742 L 19.182 19.182 L 19.742 18.500 L 20.157 17.722 L 20.414 16.878 Z" fill="#60a5fa" fill-rule="evenodd"/>
</svg>